# xmcd CD database file
#
# Track frame offsets:
#	150
#	16877
#	38580
#	54830
#	72182
#	91562
#	111597
#	132420
#	157207
#	176902
#	198717
#	216670
#
# Disc length: 3156 seconds
#
# Revision: 1
# Processed by: cddbd v1.5.1PL0 Copyright (c) Steve Scherf et al.
# Submitted via: CDex 1.51
#
DISCID=af0c520c
DTITLE=TWIGY - リミキシーズ呼吸法
DYEAR=2000
DGENRE=Japanese Hiphop
TTITLE0=big pauty-T．H．conexion
TTITLE1=金-Al script+dj Snack
TTITLE2=七日間-dj Kaori
TTITLE3=希少情報-dj Ameken
TTITLE4=honey-枯枝楽団
TTITLE5=夜行列車-cibo matto
TTITLE6=go! nippon-the wiseguys
TTITLE7=今は昔-雷神
TTITLE8=病む街pt．2-RZA mix
TTITLE9=もういいかい2001-Company flow
TTITLE10=love alibaba-枯枝楽団
TTITLE11=Tragicomic-dj Spinna
EXTD=YEAR: 2000
EXTT0=
EXTT1=
EXTT2=
EXTT3=
EXTT4=
EXTT5=
EXTT6=
EXTT7=
EXTT8=
EXTT9=
EXTT10=
EXTT11=
PLAYORDER=
